<?xml version="1.0" encoding="utf-8"?>
<!-- Svg Vector Icons : http://www.onlinewebfonts.com/icon -->
<!DOCTYPE svg PUBLIC "-//W3C//DTD SVG 1.1//EN" "http://www.w3.org/Graphics/SVG/1.1/DTD/svg11.dtd">
<svg version="1.1" xmlns="http://www.w3.org/2000/svg" xmlns:xlink="http://www.w3.org/1999/xlink" x="0px" y="0px" viewBox="0 0 1000 1000" enable-background="new 0 0 1000 1000" xml:space="preserve">
<metadata> Svg Vector Icons : http://www.onlinewebfonts.com/icon </metadata>
<g><path fill="#2cab25" d="M500,553.5c101.3,0,183.8-82.4,183.8-183.8C683.8,268.4,601.4,186,500,186c-101.3,0-183.8,82.4-183.8,183.7C316.3,471,398.7,553.5,500,553.5L500,553.5L500,553.5z M500,216.6c84.5,0,153.1,68.7,153.1,153.1c0,84.5-68.7,153.1-153.1,153.1c-84.5,0-153.1-68.7-153.1-153.1C346.9,285.3,415.6,216.6,500,216.6L500,216.6L500,216.6z M500,10c-202.7,0-367.5,162.8-367.5,367.6c0,214.4,183.8,433.7,317.8,587.8c0.5,0.6,22,24.6,48.6,24.6h2.3c26.6,0,48.1-24,48.6-24.6c134-154.1,317.8-373.4,317.8-587.8C867.5,172.8,702.7,10,500,10L500,10L500,10z M503.6,925.2c-0.6,0.6-2.5,2-4.1,3c-0.3-0.9-2.6-2.7-3.9-4.1C383.2,794.9,193.7,577,193.7,377.6c0-168.9,137.4-306.3,306.3-306.3c168.9,0,306.3,137.4,306.3,306.3C806.3,577,616.8,794.9,503.6,925.2L503.6,925.2L503.6,925.2z"/></g>
</svg>